<svg width="104" height="36" viewBox="0 0 104 36" fill="none" xmlns="http://www.w3.org/2000/svg">
<path d="M0.177734 23.2728C0.177734 16.3637 4.50501 10.0728 12.3596 10.0728C19.3778 10.0728 24.1414 14.4 24.1414 22.8V23.9637H5.05047C5.12319 28.9091 7.95956 32.1455 12.6141 32.1455C16.7959 32.1455 18.9778 29.9273 19.1596 27.3455H23.9596C23.3414 32.4364 19.4141 35.9273 12.4687 35.9273C4.50501 35.9273 0.177734 30.2546 0.177734 23.2728ZM19.1232 20.3273C18.7232 15.8546 15.9596 13.8909 12.4323 13.8909C8.79592 13.8909 5.92319 16.1819 5.34138 20.3273H19.1232Z" fill="#36A9E1"/>
<path d="M24.9431 28.1092H29.7431C29.9613 30.8728 32.1795 32.1819 36.2522 32.1819C40.1068 32.1819 41.8522 30.5455 41.8522 28.3273C41.8522 26.291 40.6886 25.3455 36.9068 24.9455L33.5249 24.6183C28.2522 24.0728 25.6704 21.9637 25.6704 17.7819C25.6704 12.6546 29.7431 10.1455 35.4158 10.1455C41.234 10.1455 45.4886 12.3273 45.8522 17.4546H41.234C40.9068 14.8728 38.8704 13.8546 35.3431 13.8546C31.8158 13.8546 29.9977 15.2001 29.9977 17.3092C29.9977 19.2728 31.1977 20.0728 34.3249 20.4364L37.7068 20.7637C43.7795 21.3819 46.3613 23.4183 46.3613 28.1455C46.3613 33.1637 42.2886 36.0001 35.9249 36.0001C29.3431 35.9274 25.0886 33.091 24.9431 28.1092Z" fill="#36A9E1"/>
<path d="M48.9768 0H54.0677V5.23637H48.9768V0ZM49.1586 10.8364H53.8495V35.3091H49.195V10.8364H49.1586Z" fill="#36A9E1"/>
<path d="M56.4695 23.2728C56.4695 16.3637 60.7968 10.0728 68.6513 10.0728C75.6695 10.0728 80.4331 14.4 80.4331 22.8V23.9637H61.3422C61.4149 28.9091 64.2513 32.1455 68.9059 32.1455C73.0877 32.1455 75.2695 29.9273 75.4513 27.3455H80.2513C79.6331 32.4364 75.7059 35.9273 68.7604 35.9273C60.7968 35.9273 56.4695 30.2546 56.4695 23.2728ZM75.415 20.3273C75.015 15.8546 72.2513 13.8909 68.724 13.8909C65.0877 13.8909 62.2149 16.1819 61.6331 20.3273H75.415Z" fill="#36A9E1"/>
<path d="M81.6349 28.3637C81.6349 21.6001 87.4531 20.6546 93.2713 20.7273H98.3622V19.1637C98.3622 15.5273 96.6167 13.891 93.1622 13.891C90.7258 13.891 87.9622 14.6182 87.4167 17.8182H82.5803C83.2713 12.1455 87.9985 10.1091 93.0167 10.1091C98.8349 10.1091 103.017 13.091 103.017 18.9091V35.3455H98.6894L98.4713 32.1819H98.2531C96.9804 34.3637 94.3258 35.9637 90.944 35.9637C85.4167 35.9273 81.6349 33.491 81.6349 28.3637ZM98.3622 27.8182V24.3637H93.4167C90.1076 24.3637 86.5803 24.4364 86.5803 28.291C86.5803 31.2001 88.6167 32.1455 91.1258 32.1455C94.6894 32.1455 97.4167 30.0001 98.3622 27.8182Z" fill="#36A9E1"/>
</svg>
