<svg width="167" height="40" viewBox="0 0 167 40" fill="none" xmlns="http://www.w3.org/2000/svg">
    <path fill-rule="evenodd" clip-rule="evenodd" d="M28.9008 9.3999C24.3008 9.3999 20.3008 13.2999 20.3008 17.9999C20.3008 22.6999 24.2008 26.5999 28.9008 26.5999C29.9008 26.5999 30.7008 25.7999 30.7008 24.7999C30.7008 23.7999 29.9008 23.0009 28.9008 23.0009C26.2008 23.0009 23.9008 20.6999 23.9008 17.9999C23.9008 15.2999 26.2008 12.9999 28.9008 12.9999C31.7008 12.9999 33.9008 15.2999 33.9008 17.9999V26.2999C33.9008 27.2999 34.7008 28.0999 35.7008 28.0999C36.7008 28.0999 37.5008 27.2999 37.5008 26.2999V17.6999V17.3999C37.1008 12.9999 33.4008 9.3999 28.9008 9.3999Z" fill="#5A52FF"/>
    <path fill-rule="evenodd" clip-rule="evenodd" d="M48.1992 9.5C43.7992 9.5 40.0992 13 39.6992 17.3V17.7V33.3C39.6992 34.3 40.4992 35.1 41.4992 35.1C42.4992 35.1 43.2992 34.3 43.2992 33.3V18.1C43.2992 15.4 45.5992 13.1 48.2992 13.1C50.9992 13.1 53.2992 15.4 53.2992 18.1C53.2992 20.9 50.9992 23.1 48.2992 23.1C47.2992 23.1 46.4992 23.9 46.4992 24.9C46.4992 25.9 47.2992 26.7 48.2992 26.7C52.9992 26.7 56.8992 22.9 56.8992 18.1C56.7992 13.5 52.7992 9.5 48.1992 9.5Z" fill="#5A52FF"/>
    <path fill-rule="evenodd" clip-rule="evenodd" d="M86.9008 9.30029C82.2008 9.30029 78.3008 12.9003 78.3008 17.4003V25.0003C78.3008 26.0003 79.1008 26.8003 80.1008 26.8003C81.1008 26.8003 81.9008 26.0003 81.9008 25.0003V17.4003C81.9008 14.9003 84.2008 12.9003 86.9008 12.9003C87.9008 12.9003 88.7008 12.1003 88.7008 11.1003C88.7008 10.1003 87.9008 9.30029 86.9008 9.30029Z" fill="#5A52FF"/>
    <path fill-rule="evenodd" clip-rule="evenodd" d="M67.6 9.5C63 9.5 59 13.4 59 18.1C59 22.8 62.8 26.7 67.6 26.7C68.6 26.7 69.4 25.9 69.4 24.9C69.4 23.9 68.6 23.1 67.6 23.1C64.8 23.1 62.6 20.8 62.6 18.1C62.6 15.4 64.9 13.1 67.6 13.1C69.7 13.1 71.6 14.5 72.3 16.4H68.4C67.4 16.4 66.6 17.2 66.6 18.2C66.6 19.2 67.4 20 68.4 20H74.4C75.4 20 76.2 19.2 76.2 18.2C76.2 13.5 72.2 9.5 67.6 9.5Z" fill="#5A52FF"/>
    <path fill-rule="evenodd" clip-rule="evenodd" d="M98.4008 9.30029C93.7008 9.30029 89.8008 12.9003 89.8008 17.4003V25.0003C89.8008 26.0003 90.6008 26.8003 91.6008 26.8003C92.6008 26.8003 93.4008 26.0003 93.4008 25.0003V17.4003C93.4008 14.9003 95.7008 12.9003 98.4008 12.9003C101.101 12.9003 103.401 14.9003 103.401 17.4003V25.0003C103.401 26.0003 104.201 26.8003 105.201 26.8003C106.201 26.8003 107.001 26.0003 107.001 25.0003V17.4003C107.001 13.0003 103.101 9.30029 98.4008 9.30029Z" fill="#5A52FF"/>
    <path fill-rule="evenodd" clip-rule="evenodd" d="M137.7 16.3H133.6C132.7 16.3 132 15.6 132 14.7C132 13.8 132.7 13.1 133.6 13.1H140.5C141.5 13.1 142.301 12.3 142.301 11.3C142.301 10.3 141.5 9.5 140.5 9.5H133.6C130.7 9.5 128.4 11.8 128.4 14.7C128.4 17.6 130.7 19.9 133.6 19.9H137.7C138.6 19.9 139.301 20.6 139.301 21.5C139.301 22.4 138.6 23.1 137.7 23.1H130.801C129.801 23.1 129 23.9 129 24.9C129 25.9 129.801 26.699 130.801 26.699H137.7C140.6 26.699 142.9 24.4 142.9 21.5C142.9 18.6 140.6 16.3 137.7 16.3Z" fill="#5A52FF"/>
    <path fill-rule="evenodd" clip-rule="evenodd" d="M120.6 10C118.4 9.30002 116.1 9.40002 113.999 10.5C111.9 11.5 110.4 13.3 109.7 15.5C108.999 17.7 109.1 20 110.2 22.1C111.2 24.2 112.999 25.7 115.2 26.4C116.1 26.7 116.999 26.9 117.999 26.9C119.3 26.9 120.6 26.6 121.8 26C122.7 25.6 122.999 24.5 122.6 23.6C122.2 22.7 121.1 22.4 120.2 22.8C118.999 23.4 117.6 23.5 116.3 23.1C114.999 22.7 113.999 21.7 113.3 20.5C112.7 19.3 112.6 17.9 112.999 16.6C113.4 15.3 114.4 14.3 115.6 13.6C116.8 13 118.2 12.9 119.499 13.3C120.2 13.5 120.8 13.9 121.4 14.4L117.9 16.1C116.999 16.5 116.7 17.6 117.1 18.4C117.499 19.3 118.6 19.6 119.4 19.2L124.8 16.6C125.2 16.4 125.6 16 125.7 15.6C125.9 15.2 125.8 14.7 125.6 14.2C124.499 12.2 122.8 10.7 120.6 10Z" fill="#5A52FF"/>
    <mask id="mask0" mask-type="alpha" maskUnits="userSpaceOnUse" x="144" y="5" width="22" height="22">
       <path fill-rule="evenodd" clip-rule="evenodd" d="M144.5 5H165.101V26.6H144.5V5Z" fill="white"/>
    </mask>
    <g mask="url(#mask0)">
        <path fill-rule="evenodd" clip-rule="evenodd" d="M163.301 16.2C162.301 16.2 161.5 17 161.5 18C161.5 20.8 159.2 23 156.5 23C153.801 23 151.5 20.7 151.5 18V13H154.901C155.901 13 156.7 12.2 156.7 11.2C156.7 10.2 155.901 9.4 154.901 9.4H151.5V6.8C151.5 5.8 150.7 5 149.7 5C148.7 5 147.901 5.8 147.901 6.8V9.4H146.301C145.301 9.4 144.5 10.2 144.5 11.2C144.5 12.2 145.301 13 146.301 13H147.901V18C147.901 22.7 151.7 26.6 156.5 26.6C161.2 26.6 165.101 22.8 165.101 18C165.101 17 164.301 16.2 163.301 16.2Z" fill="#5A52FF"/>
    </g>
    <path fill-rule="evenodd" clip-rule="evenodd" d="M9.5 9.3999C5 9.3999 1.3 12.8999 1 17.3999V17.6999V33.2999C1 34.2999 1.8 35.0999 2.8 35.0999C3.8 35.0999 4.6 34.2999 4.6 33.2999V17.9999C4.6 15.1999 6.9 12.9999 9.6 12.9999C12.3 12.9999 14.6 15.2999 14.6 17.9999C14.6 20.6999 12.3 23.0009 9.6 23.0009C8.6 23.0009 7.8 23.7999 7.8 24.7999C7.8 25.7999 8.6 26.5999 9.6 26.5999C14.2 26.5999 18.2 22.6999 18.2 17.9999C18.2 13.2999 14.1 9.3999 9.5 9.3999Z" fill="#5A52FF"/>
</svg>
